<?xml version="1.0" encoding="utf-8"?>
<!-- Generator: Adobe Illustrator 22.0.1, SVG Export Plug-In . SVG Version: 6.00 Build 0)  -->
<svg version="1.1" id="Layer_1" xmlns="http://www.w3.org/2000/svg" xmlns:xlink="http://www.w3.org/1999/xlink" x="0px" y="0px"
	 viewBox="0 0 601 133.3" style="enable-background:new 0 0 601 133.3;" xml:space="preserve">
<style type="text/css">
	.st0{fill:#FFFFFF;}
	.st1{enable-background:new    ;}
</style>
<path class="st0" d="M149.5,69.2c-0.7,1.4-1.6,2.7-2.5,3.9c-2,2.5-4.4,4.8-7,6.8s-5.4,3.8-8.4,5.4c-2.9,1.6-5.9,3-8.7,3.8l-0.5,0.2
	l-0.5,0.1l-1,0.2l-0.9,0.1h-0.2h-0.2h-0.4c-0.1,0-0.3,0-0.4,0c-0.1,0-0.2,0-0.3-0.1c-0.1,0-0.2,0-0.3-0.1c-0.1,0-0.2-0.1-0.2-0.1
	c-0.1,0-0.2,0-0.2-0.1c-0.1,0-0.1-0.1-0.2-0.1c-0.1,0-0.2-0.2-0.3-0.3c-0.4-0.4-0.8-1.1-1.2-2.2s-0.6-2.5-0.8-4
	c-0.3-3-0.3-6.3-0.3-9.7c0-3.4,0.1-7-0.2-10.8c-0.2-2-0.4-3.7-0.8-5.8c-0.1-0.5-0.2-1-0.4-1.6c-0.1-0.6-0.3-1.2-0.6-1.9
	c-0.1-0.4-0.3-0.8-0.5-1.2c-0.3-0.5-0.5-1-1.2-1.7l-0.2-0.3l-0.3-0.3c-0.2-0.2-0.4-0.4-0.7-0.6c-0.6-0.4-1.3-0.8-2.3-1.1
	c-0.5-0.1-1-0.2-1.5-0.2s-1,0-1.4,0.1s-0.9,0.2-1.2,0.3c-0.2,0.1-0.3,0.1-0.5,0.2c-0.2,0.1-0.3,0.1-0.4,0.2c-1.1,0.6-1.6,1-2.1,1.5
	c-0.2,0.2-0.4,0.4-0.6,0.6l-0.2,0.3l-0.2,0.2c-0.5,0.6-0.9,1.2-1.2,1.7c-0.6,1-1.1,1.9-1.6,2.8c-0.9,1.7-1.6,3.4-2.4,5
	c-1.5,3.3-2.8,6.5-4.2,9.7L90,70.8c-0.4-3.3-0.8-6.7-1.3-10.1L88.3,58c-0.1-0.9-0.3-1.7-0.5-2.8c-0.2-1-0.4-2.1-0.8-3.4
	c-0.2-0.6-0.4-1.3-0.8-2.1c-0.4-0.8-0.9-1.7-1.8-2.8c-0.5-0.5-1.1-1.1-2.1-1.7c-0.9-0.6-2.1-1-3.4-1.2c-1.3-0.1-2.5,0-3.4,0.3
	s-1.6,0.6-2.2,1c-1.1,0.7-1.8,1.3-2.4,1.9c-0.6,0.6-1,1.1-1.4,1.6c-1.5,2-2.4,3.7-3.3,5.4c-1.8,3.4-3.2,6.7-4.5,10.1
	c-0.6,1.6-1.2,3.2-1.8,4.8c-0.7-3.7-1.9-7.4-3.7-10.9c-0.9-1.8-1.9-3.5-3.1-5c-0.6-0.8-1.2-1.6-1.9-2.3c-0.3-0.4-0.7-0.7-1-1.1
	c-0.4-0.3-0.7-0.7-1.1-1.1c-1.6-1.5-3.7-2.8-6.2-3.4c-1.2-0.3-2.4-0.4-3.6-0.3L76.8,7c4.8-4.8,12.5-4.8,17.3,0l52,52
	C148.8,61.8,150,65.6,149.5,69.2z"/>
<path class="st0" d="M125.6,96.7L94,128.3c-4.8,4.8-12.5,4.8-17.3,0l-52-52c-3.2-3.2-4.3-7.9-3.1-12c0.3-0.3,0.6-0.7,0.9-1
	c2.3-2.5,4.6-5,7.1-7c1.3-1,2.6-2,3.9-2.7s2.7-1.3,3.9-1.5c1.2-0.2,2.3-0.1,3.1,0.2c0.9,0.4,1.7,1,2.6,2c0.2,0.2,0.4,0.5,0.7,0.8
	l0.7,0.9c0.4,0.6,0.8,1.2,1.2,1.9c0.7,1.3,1.4,2.6,1.9,4c1.1,2.8,1.7,5.8,2.1,8.8c0.3,3.1,0.3,6.3,0.2,9.5c-0.1,1.6-0.2,3.3-0.3,5
	l-0.2,2.7c-0.1,0.9-0.1,1.9-0.1,3.2c0,0.7,0.1,1.4,0.4,2.6c0.1,0.3,0.2,0.7,0.4,1.1c0.1,0.2,0.3,0.5,0.4,0.7
	c0.1,0.1,0.1,0.2,0.3,0.4c0.1,0.2,0.2,0.3,0.3,0.4c0.2,0.3,0.6,0.6,0.9,0.9s0.8,0.6,1.3,0.8c0.5,0.2,1,0.4,1.5,0.5
	c0.3,0.1,0.3,0.1,1,0.1c0.5,0,1.1,0,1.5-0.1s0.8-0.2,1.1-0.3c0.3-0.1,0.5-0.2,0.8-0.3c0.3-0.1,0.4-0.2,0.6-0.3
	c0.2-0.1,0.4-0.2,0.4-0.3c0.5-0.4,0.8-0.7,1-0.9c0.5-0.5,0.7-0.9,0.9-1.2c0.4-0.6,0.7-1.1,1-1.6c1.1-1.9,1.8-3.5,2.5-5.2
	c1.5-3.3,2.8-6.5,4.1-9.7s2.6-6.3,4-9.4c0.4-1,0.9-2,1.3-2.9c0.2,2,0.5,4,0.7,6c0.4,3.4,0.7,6.8,1.1,10.4c0.2,1.8,0.5,3.6,0.9,5.7
	c0.1,0.5,0.2,1.1,0.4,1.7s0.4,1.3,0.7,2.1c0.1,0.2,0.2,0.4,0.3,0.7c0.1,0.2,0.2,0.5,0.4,0.8l0.3,0.4c0.1,0.1,0.2,0.4,0.4,0.5
	c0.1,0.2,0.3,0.3,0.4,0.5c0.2,0.2,0.4,0.4,0.6,0.6c0.2,0.2,0.5,0.5,0.9,0.7c0.3,0.2,0.6,0.4,1.1,0.6c0.4,0.2,0.9,0.4,1.4,0.5
	s1,0.2,1.6,0.2c0.5,0,1,0,1.5-0.1c0.2,0,0.5-0.1,0.7-0.1s0.4-0.1,0.6-0.1c0.2-0.1,0.4-0.1,0.5-0.2c0.2-0.1,0.4-0.1,0.5-0.2
	c0.3-0.1,0.5-0.3,0.7-0.4l0.4-0.2l0.3-0.2c0.2-0.1,0.3-0.2,0.5-0.4c0.2-0.1,0.3-0.2,0.4-0.3l0.3-0.3c0.2-0.2,0.4-0.4,0.5-0.6
	c0.2-0.2,0.3-0.4,0.4-0.5c0.5-0.7,0.9-1.2,1.2-1.7c0.6-1,1.1-2,1.6-2.9c0.9-1.8,1.6-3.5,2.3-5.2l1-2.5l0.9-2.4
	c0.6-1.6,1.2-3.2,1.9-4.9c0.3-0.9,0.7-1.8,1-2.8c0,0.4,0.1,0.9,0.1,1.3c0.3,3.5,0.5,7.1,1.3,11c0.4,1.9,0.9,3.9,1.9,6
	c0.3,0.5,0.5,1.1,0.8,1.6s0.7,1.1,1,1.6c0.4,0.5,0.8,1,1.3,1.5c0.3,0.2,0.5,0.5,0.8,0.7l0.4,0.3l0.5,0.3c0.6,0.4,1.2,0.8,1.9,1
	c0.3,0.1,0.7,0.3,1,0.4s0.7,0.2,1,0.3l1,0.2c0.3,0,0.6,0,1,0.1h1c0.3,0,0.6,0,0.9-0.1l0.9-0.1h0.4l0.4-0.1l1.6-0.4
	c0.5-0.1,1-0.3,1.5-0.5l0.7-0.2L125.6,96.7L125.6,96.7z"/>
<g class="st1">
	<path class="st0" d="M251.4,98.8h-16.2V57.6l-18.3,30.1h-1.8l-18.3-30.1v41.2h-16.2V27.9h16.2L216,59.4l19.2-31.5h16.2V98.8z"/>
	<path class="st0" d="M288.8,86.6c4.1,0,7.7-1.6,9.7-3.8l12.1,7c-5,6.9-12.5,10.4-22.1,10.4c-17.3,0-28-11.6-28-26.7
		s10.9-26.7,26.9-26.7c14.8,0,25.7,11.4,25.7,26.7c0,2.1-0.2,4.2-0.6,6.1h-35.9C278.6,84.8,283.2,86.6,288.8,86.6z M298.1,68.2
		c-1.6-5.9-6.2-8-10.7-8c-5.8,0-9.6,2.8-11,8H298.1z"/>
	<path class="st0" d="M339.5,62.7v17.9c0,4.4,3.7,4.8,10.4,4.4v13.8c-19.8,2-25.6-3.9-25.6-18.1V62.7h-8.1V48.2h8.1v-9.6l15.2-4.6
		v14.2h10.4v14.6H339.5z"/>
	<path class="st0" d="M389.9,47.2v17.2c-6.3-1-15.2,1.5-15.2,11.5v22.9h-15.2V48.2h15.2v9C376.8,50.4,383.5,47.2,389.9,47.2z"/>
	<path class="st0" d="M395.5,34.6c0-5,4.1-9.1,9.1-9.1c5,0,9.1,4.2,9.1,9.1s-4.2,9.1-9.1,9.1C399.6,43.7,395.5,39.6,395.5,34.6z
		 M397,48.2h15.2v50.6H397V48.2z"/>
	<path class="st0" d="M454,98.8l-9.4-13.4l-9.4,13.4h-17.4l18.1-25.7l-17.5-24.9h17.4l8.8,12.6l8.8-12.6h17.4l-17.5,24.9l18.1,25.7
		H454z"/>
</g>
</svg>
