<?xml version="1.0" encoding="utf-8"?>
<!-- Generator: Adobe Illustrator 22.0.1, SVG Export Plug-In . SVG Version: 6.00 Build 0)  -->
<svg version="1.1" id="Layer_1" xmlns="http://www.w3.org/2000/svg" xmlns:xlink="http://www.w3.org/1999/xlink" x="0px" y="0px"
	 viewBox="0 0 601 133.3" style="enable-background:new 0 0 601 133.3;" xml:space="preserve">
<style type="text/css">
	.st0{fill:#E94DB6;}
	.st1{fill:#1E9FE7;}
	.st2{fill:#FFFFFF;}
	.st3{enable-background:new    ;}
	.st4{fill:#39414F;}
</style>
<g>
	<path class="st0" d="M149.1,68.2c-0.7,1.4-1.6,2.7-2.5,3.9c-2,2.5-4.4,4.8-7,6.8s-5.4,3.8-8.4,5.4c-2.9,1.6-5.9,3-8.7,3.8l-0.5,0.2
		l-0.5,0.1l-1,0.2l-0.9,0.1h-0.2h-0.2h-0.4c-0.1,0-0.3,0-0.4,0c-0.1,0-0.2,0-0.3-0.1c-0.1,0-0.2,0-0.3-0.1c-0.1,0-0.2-0.1-0.2-0.1
		c-0.1,0-0.2,0-0.2-0.1c-0.1,0-0.1-0.1-0.2-0.1c-0.1,0-0.2-0.2-0.3-0.3c-0.4-0.4-0.8-1.1-1.2-2.2s-0.6-2.5-0.8-4
		c-0.3-3-0.3-6.3-0.3-9.7c0-3.4,0.1-7-0.2-10.8c-0.2-2-0.4-3.7-0.8-5.8c-0.1-0.5-0.2-1-0.4-1.6c-0.1-0.6-0.3-1.2-0.6-1.9
		c-0.1-0.4-0.3-0.8-0.5-1.2c-0.3-0.5-0.5-1-1.2-1.7l-0.2-0.3l-0.3-0.3c-0.2-0.2-0.4-0.4-0.7-0.6c-0.6-0.4-1.3-0.8-2.3-1.1
		c-0.5-0.1-1-0.2-1.5-0.2s-1,0-1.4,0.1s-0.9,0.2-1.2,0.3c-0.2,0.1-0.3,0.1-0.5,0.2c-0.2,0.1-0.3,0.1-0.4,0.2c-1.1,0.6-1.6,1-2.1,1.5
		c-0.2,0.2-0.4,0.4-0.6,0.6l-0.2,0.3l-0.2,0.2c-0.5,0.6-0.9,1.2-1.2,1.7c-0.6,1-1.1,1.9-1.6,2.8c-0.9,1.7-1.6,3.4-2.4,5
		c-1.5,3.3-2.8,6.5-4.2,9.7l-0.3,0.7c-0.4-3.3-0.8-6.7-1.3-10.1L87.9,57c-0.1-0.9-0.3-1.7-0.5-2.8c-0.2-1-0.4-2.1-0.8-3.4
		c-0.2-0.6-0.4-1.3-0.8-2.1c-0.4-0.8-0.9-1.7-1.8-2.8c-0.5-0.5-1.1-1.1-2.1-1.7c-0.9-0.6-2.1-1-3.4-1.2c-1.3-0.1-2.5,0-3.4,0.3
		s-1.6,0.6-2.2,1c-1.1,0.7-1.8,1.3-2.4,1.9c-0.6,0.6-1,1.1-1.4,1.6c-1.5,2-2.4,3.7-3.3,5.4c-1.8,3.4-3.2,6.7-4.5,10.1
		c-0.6,1.6-1.2,3.2-1.8,4.8c-0.7-3.7-1.9-7.4-3.7-10.9c-0.9-1.8-1.9-3.5-3.1-5c-0.6-0.8-1.2-1.6-1.9-2.3c-0.3-0.4-0.7-0.7-1-1.1
		c-0.4-0.3-0.7-0.7-1.1-1.1c-1.6-1.5-3.7-2.8-6.2-3.4c-1.2-0.3-2.4-0.4-3.6-0.3L76.4,6c4.8-4.8,12.5-4.8,17.3,0l52,52
		C148.4,60.8,149.6,64.6,149.1,68.2z"/>
	<path class="st1" d="M125.2,95.7l-31.6,31.6c-4.8,4.8-12.5,4.8-17.3,0l-52-52c-3.2-3.2-4.3-7.9-3.1-12c0.3-0.3,0.6-0.7,0.9-1
		c2.3-2.5,4.6-5,7.1-7c1.3-1,2.6-2,3.9-2.7s2.7-1.3,3.9-1.5c1.2-0.2,2.3-0.1,3.1,0.2c0.9,0.4,1.7,1,2.6,2c0.2,0.2,0.4,0.5,0.7,0.8
		l0.7,0.9c0.4,0.6,0.8,1.2,1.2,1.9c0.7,1.3,1.4,2.6,1.9,4c1.1,2.8,1.7,5.8,2.1,8.8c0.3,3.1,0.3,6.3,0.2,9.5c-0.1,1.6-0.2,3.3-0.3,5
		L49,86.9c-0.1,0.9-0.1,1.9-0.1,3.2c0,0.7,0.1,1.4,0.4,2.6c0.1,0.3,0.2,0.7,0.4,1.1c0.1,0.2,0.3,0.5,0.4,0.7
		c0.1,0.1,0.1,0.2,0.3,0.4c0.1,0.2,0.2,0.3,0.3,0.4c0.2,0.3,0.6,0.6,0.9,0.9s0.8,0.6,1.3,0.8c0.5,0.2,1,0.4,1.5,0.5
		c0.3,0.1,0.3,0.1,1,0.1c0.5,0,1.1,0,1.5-0.1s0.8-0.2,1.1-0.3c0.3-0.1,0.5-0.2,0.8-0.3c0.3-0.1,0.4-0.2,0.6-0.3
		c0.2-0.1,0.4-0.2,0.4-0.3c0.5-0.4,0.8-0.7,1-0.9c0.5-0.5,0.7-0.9,0.9-1.2c0.4-0.6,0.7-1.1,1-1.6c1.1-1.9,1.8-3.5,2.5-5.2
		c1.5-3.3,2.8-6.5,4.1-9.7s2.6-6.3,4-9.4c0.4-1,0.9-2,1.3-2.9c0.2,2,0.5,4,0.7,6c0.4,3.4,0.7,6.8,1.1,10.4c0.2,1.8,0.5,3.6,0.9,5.7
		c0.1,0.5,0.2,1.1,0.4,1.7s0.4,1.3,0.7,2.1c0.1,0.2,0.2,0.4,0.3,0.7c0.1,0.2,0.2,0.5,0.4,0.8l0.3,0.4c0.1,0.1,0.2,0.4,0.4,0.5
		c0.1,0.2,0.3,0.3,0.4,0.5c0.2,0.2,0.4,0.4,0.6,0.6c0.2,0.2,0.5,0.5,0.9,0.7c0.3,0.2,0.6,0.4,1.1,0.6c0.4,0.2,0.9,0.4,1.4,0.5
		s1,0.2,1.6,0.2c0.5,0,1,0,1.5-0.1c0.2,0,0.5-0.1,0.7-0.1s0.4-0.1,0.6-0.1c0.2-0.1,0.4-0.1,0.5-0.2c0.2-0.1,0.4-0.1,0.5-0.2
		c0.3-0.1,0.5-0.3,0.7-0.4l0.4-0.2l0.3-0.2c0.2-0.1,0.3-0.2,0.5-0.4c0.2-0.1,0.3-0.2,0.4-0.3l0.3-0.3c0.2-0.2,0.4-0.4,0.5-0.6
		c0.2-0.2,0.3-0.4,0.4-0.5c0.5-0.7,0.9-1.2,1.2-1.7c0.6-1,1.1-2,1.6-2.9c0.9-1.8,1.6-3.5,2.3-5.2l1-2.5l0.9-2.4
		c0.6-1.6,1.2-3.2,1.9-4.9c0.3-0.9,0.7-1.8,1-2.8c0,0.4,0.1,0.9,0.1,1.3c0.3,3.5,0.5,7.1,1.3,11c0.4,1.9,0.9,3.9,1.9,6
		c0.3,0.5,0.5,1.1,0.8,1.6s0.7,1.1,1,1.6c0.4,0.5,0.8,1,1.3,1.5c0.3,0.2,0.5,0.5,0.8,0.7l0.4,0.3l0.5,0.3c0.6,0.4,1.2,0.8,1.9,1
		c0.3,0.1,0.7,0.3,1,0.4s0.7,0.2,1,0.3l1,0.2c0.3,0,0.6,0,1,0.1h1c0.3,0,0.6,0,0.9-0.1l0.9-0.1h0.4l0.4-0.1l1.6-0.4
		c0.5-0.1,1-0.3,1.5-0.5l0.7-0.2L125.2,95.7L125.2,95.7z"/>
	<path class="st1" d="M149.1,68.2c-0.3,2.6-1.5,5.1-3.5,7.1l-20.4,20.4l0,0l-0.7,0.3l-0.7,0.2c-0.5,0.2-1,0.3-1.5,0.5l-1.6,0.4
		l-0.4,0.1h-0.4l-0.9,0.1c-0.3,0-0.6,0.1-0.9,0.1h-1c-0.3,0-0.6,0-1-0.1l-1-0.2c-0.3-0.1-0.7-0.1-1-0.3c-0.3-0.1-0.7-0.3-1-0.4
		c-0.7-0.2-1.3-0.6-1.9-1l-0.5-0.3l-0.4-0.3c-0.3-0.2-0.5-0.5-0.8-0.7c-0.5-0.5-0.9-1-1.3-1.5c-0.4-0.5-0.7-1-1-1.6
		c-0.3-0.5-0.5-1-0.8-1.6c-0.9-2.1-1.5-4.1-1.9-6c-0.8-3.9-1.1-7.5-1.3-11c0-0.4-0.1-0.9-0.1-1.3c-0.3,0.9-0.7,1.8-1,2.8
		c-0.6,1.6-1.2,3.2-1.9,4.9l-0.9,2.4l-1,2.5c-0.7,1.7-1.4,3.4-2.3,5.2c-0.4,0.9-0.9,1.8-1.6,2.9c-0.3,0.5-0.7,1.1-1.2,1.7
		c-0.1,0.2-0.2,0.3-0.4,0.5s-0.3,0.3-0.5,0.6L92,94.9c-0.1,0.1-0.2,0.2-0.4,0.3c-0.2,0.1-0.3,0.3-0.5,0.4l-0.3,0.2L90.4,96
		c-0.2,0.1-0.5,0.3-0.7,0.4c-0.1,0.1-0.3,0.1-0.5,0.2s-0.4,0.1-0.5,0.2c-0.2,0.1-0.4,0.1-0.6,0.1c-0.2,0-0.5,0.1-0.7,0.1
		c-0.5,0.1-0.9,0.1-1.5,0.1c-0.5,0-1.1-0.1-1.6-0.2s-0.9-0.3-1.4-0.5s-0.8-0.4-1.1-0.6s-0.7-0.5-0.9-0.7s-0.4-0.4-0.6-0.6
		c-0.2-0.2-0.3-0.4-0.4-0.5c-0.1-0.2-0.3-0.4-0.4-0.5l-0.3-0.4c-0.2-0.3-0.3-0.5-0.4-0.8c-0.1-0.3-0.2-0.5-0.3-0.7
		c-0.3-0.8-0.5-1.5-0.7-2.1s-0.3-1.1-0.4-1.7c-0.4-2.1-0.6-3.9-0.9-5.7c-0.4-3.6-0.8-7-1.1-10.4c-0.2-2-0.4-4-0.7-6
		c-0.4,1-0.9,1.9-1.3,2.9c-1.4,3.1-2.7,6.2-4,9.4c-1.3,3.2-2.7,6.4-4.1,9.7c-0.8,1.7-1.5,3.3-2.5,5.2c-0.3,0.5-0.6,1-1,1.6
		c-0.2,0.3-0.5,0.7-0.9,1.2c-0.2,0.2-0.5,0.6-1,0.9c-0.1,0.1-0.3,0.2-0.4,0.3c-0.2,0.1-0.3,0.2-0.6,0.3c-0.2,0.1-0.5,0.2-0.8,0.3
		c-0.3,0.1-0.8,0.2-1.1,0.3c-0.4,0.1-1,0.1-1.5,0.1c-0.6,0-0.6-0.1-1-0.1c-0.5-0.1-1-0.3-1.5-0.5s-1-0.5-1.3-0.8
		c-0.4-0.3-0.7-0.7-0.9-0.9c-0.1-0.1-0.2-0.3-0.3-0.4c-0.1-0.2-0.2-0.3-0.3-0.4c-0.1-0.2-0.3-0.5-0.4-0.7c-0.2-0.4-0.3-0.8-0.4-1.1
		c-0.3-1.2-0.3-1.9-0.4-2.6c-0.1-1.3,0-2.2,0.1-3.2l0.2-2.7c0.1-1.7,0.3-3.4,0.3-5c0.1-3.3,0.1-6.4-0.2-9.5c-0.3-3.1-1-6.1-2.1-8.8
		c-0.5-1.4-1.2-2.7-1.9-4c-0.4-0.6-0.8-1.3-1.2-1.9l-0.7-0.9c-0.2-0.3-0.5-0.6-0.7-0.8c-0.8-1-1.7-1.6-2.6-2s-1.9-0.5-3.1-0.2
		c-1.2,0.2-2.6,0.8-3.9,1.5s-2.6,1.7-3.9,2.7c-2.5,2-4.9,4.5-7.1,7c-0.3,0.3-0.6,0.7-0.9,1c0.5-1.9,1.6-3.8,3.1-5.3l14.2-14.2
		c1.2-0.1,2.4,0,3.6,0.3c2.5,0.6,4.6,2,6.2,3.4c0.4,0.4,0.8,0.7,1.1,1.1c0.3,0.4,0.7,0.7,1,1.1c0.7,0.7,1.3,1.5,1.9,2.3
		c1.2,1.6,2.2,3.3,3.1,5c1.8,3.5,3,7.2,3.7,10.9c0.6-1.6,1.2-3.2,1.8-4.8c1.3-3.3,2.7-6.6,4.5-10.1c0.9-1.7,1.8-3.4,3.3-5.4
		c0.4-0.5,0.8-1,1.4-1.6c0.6-0.6,1.2-1.2,2.4-1.9c0.5-0.3,1.3-0.7,2.2-1s2.1-0.5,3.4-0.3c1.3,0.1,2.5,0.6,3.4,1.2
		c1,0.6,1.6,1.2,2.1,1.7c1,1.1,1.4,2,1.8,2.8c0.4,0.8,0.6,1.4,0.8,2.1c0.4,1.2,0.6,2.3,0.8,3.4c0.2,1.1,0.3,1.9,0.5,2.8l0.4,2.7
		c0.5,3.4,0.9,6.7,1.3,10.1l0.3-0.7c1.4-3.2,2.7-6.4,4.2-9.7c0.7-1.6,1.5-3.3,2.4-5c0.5-0.9,0.9-1.8,1.6-2.8c0.3-0.5,0.7-1,1.2-1.7
		l0.2-0.2l0.2-0.3c0.1-0.2,0.4-0.4,0.6-0.6c0.5-0.4,1-0.9,2.1-1.5c0.1-0.1,0.3-0.1,0.4-0.2c0.2-0.1,0.3-0.1,0.5-0.2
		c0.3-0.1,0.8-0.2,1.2-0.3s0.9-0.1,1.4-0.1s1,0.1,1.5,0.2c0.9,0.2,1.7,0.7,2.3,1.1c0.3,0.2,0.5,0.4,0.7,0.6l0.3,0.3l0.2,0.3
		c0.6,0.7,0.9,1.2,1.2,1.7c0.2,0.5,0.4,0.9,0.5,1.2c0.3,0.7,0.4,1.3,0.6,1.9c0.1,0.6,0.3,1.1,0.4,1.6c0.4,2,0.6,3.7,0.8,5.8
		c0.3,3.9,0.2,7.4,0.2,10.8s0,6.7,0.3,9.7c0.2,1.5,0.4,2.9,0.8,4c0.4,1.1,0.8,1.9,1.2,2.2c0.1,0.1,0.2,0.2,0.3,0.3
		c0.1,0,0.1,0.1,0.2,0.1c0.1,0,0.2,0.1,0.2,0.1c0.1,0,0.2,0.1,0.2,0.1c0.1,0,0.2,0,0.3,0.1c0.1,0,0.2,0,0.3,0.1c0.1,0,0.3,0,0.4,0
		h0.4h0.2h0.2l0.9-0.1l1-0.2l0.5-0.1l0.5-0.2c2.8-0.8,5.8-2.2,8.7-3.8c2.9-1.6,5.7-3.4,8.4-5.4c2.6-2,5-4.2,7-6.8
		C147.5,70.8,148.4,69.6,149.1,68.2z"/>
	<path class="st2" d="M152.5,58.3c-0.4-1.7-1.1-3.4-2.1-4.8c1.3,3.2,1.4,6.8,0.6,10c-0.4,1.7-1,3.3-1.8,4.8
		c-0.7,1.4-1.6,2.7-2.5,3.9c-2,2.5-4.4,4.8-7,6.8s-5.4,3.8-8.4,5.4c-2.9,1.6-5.9,3-8.7,3.8l-0.5,0.2l-0.5,0.1l-1,0.2l-0.9,0.1h-0.2
		h-0.2h-0.4c-0.1,0-0.3,0-0.4,0c-0.1,0-0.2,0-0.3-0.1c-0.1,0-0.2,0-0.3-0.1c-0.1,0-0.2-0.1-0.2-0.1c-0.1,0-0.2,0-0.2-0.1
		c-0.1,0-0.1-0.1-0.2-0.1c-0.1,0-0.2-0.2-0.3-0.3c-0.4-0.4-0.8-1.1-1.2-2.2s-0.6-2.5-0.8-4c-0.3-3-0.3-6.3-0.3-9.7
		c0-3.4,0.1-7-0.2-10.8c-0.2-2-0.4-3.7-0.8-5.8c-0.1-0.5-0.2-1-0.4-1.6c-0.1-0.6-0.3-1.2-0.6-1.9c-0.1-0.4-0.3-0.8-0.5-1.2
		c-0.3-0.5-0.5-1-1.2-1.7l-0.2-0.3l-0.3-0.3c-0.2-0.2-0.4-0.4-0.7-0.6c-0.6-0.4-1.3-0.8-2.3-1.1c-0.5-0.1-1-0.2-1.5-0.2
		s-1,0-1.4,0.1s-0.9,0.2-1.2,0.3c-0.2,0.1-0.3,0.1-0.5,0.2c-0.2,0.1-0.3,0.1-0.4,0.2c-1.1,0.6-1.6,1-2.1,1.5
		c-0.2,0.2-0.4,0.4-0.6,0.6l-0.2,0.3L99.4,50c-0.5,0.6-0.9,1.2-1.2,1.7c-0.6,1-1.1,1.9-1.6,2.8c-0.9,1.7-1.6,3.4-2.4,5
		c-1.5,3.3-2.8,6.5-4.2,9.7l-0.3,0.7c-0.4-3.3-0.8-6.7-1.3-10.1L88,57.1c-0.1-0.9-0.3-1.7-0.5-2.8c-0.2-1-0.4-2.1-0.8-3.4
		c-0.2-0.6-0.4-1.3-0.8-2.1C85.5,48,85,47.1,84.1,46c-0.5-0.5-1.1-1.1-2.1-1.7c-0.9-0.6-2.1-1-3.4-1.2c-1.3-0.1-2.5,0-3.4,0.3
		s-1.6,0.6-2.2,1c-1.1,0.7-1.8,1.3-2.4,1.9c-0.6,0.6-1,1.1-1.4,1.6c-1.5,2-2.4,3.7-3.3,5.4c-1.8,3.4-3.2,6.7-4.5,10.1
		c-0.6,1.6-1.2,3.2-1.8,4.8c-0.7-3.7-1.9-7.4-3.7-10.9c-0.9-1.8-1.9-3.5-3.1-5c-0.6-0.8-1.2-1.6-1.9-2.3c-0.3-0.4-0.7-0.7-1-1.1
		c-0.4-0.3-0.7-0.7-1.1-1.1c-1.6-1.5-3.7-2.8-6.2-3.4c-1.2-0.3-2.4-0.4-3.6-0.3h-0.1c-1.2,0.1-2.4,0.3-3.4,0.7
		c-2.1,0.7-3.9,1.8-5.5,3s-2.9,2.5-4.2,3.9c-2.5,2.7-4.6,5.6-6.5,8.7c-3.8,6-6.8,12.3-9.3,18.9c1.9-2.9,3.9-5.8,6-8.5
		c1.8-2.4,3.6-4.8,5.6-7c0.3-0.3,0.6-0.7,0.9-1c2.3-2.5,4.6-5,7.1-7c1.3-1,2.6-2,3.9-2.7s2.7-1.3,3.9-1.5c1.2-0.2,2.3-0.1,3.1,0.2
		c0.9,0.4,1.7,1,2.6,2c0.2,0.2,0.4,0.5,0.7,0.8l0.7,0.9c0.4,0.6,0.8,1.2,1.2,1.9c0.7,1.3,1.4,2.6,1.9,4c1.1,2.8,1.7,5.8,2.1,8.8
		c0.3,3.1,0.3,6.3,0.2,9.5c-0.1,1.6-0.2,3.3-0.3,5l-0.2,2.7c-0.1,0.9-0.1,1.9-0.1,3.2c0,0.7,0.1,1.4,0.4,2.6
		c0.1,0.3,0.2,0.7,0.4,1.1c0.1,0.2,0.3,0.5,0.4,0.7c0.1,0.1,0.1,0.2,0.3,0.4c0.1,0.2,0.2,0.3,0.3,0.4c0.2,0.3,0.6,0.6,0.9,0.9
		s0.8,0.6,1.3,0.8c0.5,0.2,1,0.4,1.5,0.5c0.3,0.1,0.3,0.1,1,0.1c0.5,0,1.1,0,1.5-0.1s0.8-0.2,1.1-0.3c0.3-0.1,0.5-0.2,0.8-0.3
		c0.3-0.1,0.4-0.2,0.6-0.3c0.2-0.1,0.4-0.2,0.4-0.3c0.5-0.4,0.8-0.7,1-0.9c0.5-0.5,0.7-0.9,0.9-1.2c0.4-0.6,0.7-1.1,1-1.6
		c1.1-1.9,1.8-3.5,2.5-5.2c1.5-3.3,2.8-6.5,4.1-9.7s2.6-6.3,4-9.4c0.4-1,0.9-2,1.3-2.9c0.2,2,0.5,4,0.7,6c0.4,3.4,0.7,6.8,1.1,10.4
		c0.2,1.8,0.5,3.6,0.9,5.7c0.1,0.5,0.2,1.1,0.4,1.7s0.4,1.3,0.7,2.1c0.1,0.2,0.2,0.4,0.3,0.7c0.1,0.2,0.2,0.5,0.4,0.8l0.3,0.4
		c0.1,0.1,0.2,0.4,0.4,0.5c0.1,0.2,0.3,0.3,0.4,0.5c0.2,0.2,0.4,0.4,0.6,0.6c0.2,0.2,0.5,0.5,0.9,0.7c0.3,0.2,0.6,0.4,1.1,0.6
		c0.4,0.2,0.9,0.4,1.4,0.5s1,0.2,1.6,0.2c0.5,0,1,0,1.5-0.1c0.2,0,0.5-0.1,0.7-0.1S88.8,97,89,97c0.2-0.1,0.4-0.1,0.5-0.2
		c0.2-0.1,0.4-0.1,0.5-0.2c0.3-0.1,0.5-0.3,0.7-0.4l0.4-0.2l0.3-0.2c0.2-0.1,0.3-0.2,0.5-0.4c0.2-0.1,0.3-0.2,0.4-0.3l0.3-0.3
		c0.2-0.2,0.4-0.4,0.5-0.6c0.2-0.2,0.3-0.4,0.4-0.5c0.5-0.7,0.9-1.2,1.2-1.7c0.6-1,1.1-2,1.6-2.9c0.9-1.8,1.6-3.5,2.3-5.2l1-2.5
		l0.9-2.4c0.6-1.6,1.2-3.2,1.9-4.9c0.3-0.9,0.7-1.8,1-2.8c0,0.4,0.1,0.9,0.1,1.3c0.3,3.5,0.5,7.1,1.3,11c0.4,1.9,0.9,3.9,1.9,6
		c0.3,0.5,0.5,1.1,0.8,1.6s0.7,1.1,1,1.6c0.4,0.5,0.8,1,1.3,1.5c0.3,0.2,0.5,0.5,0.8,0.7l0.4,0.3l0.5,0.3c0.6,0.4,1.2,0.8,1.9,1
		c0.3,0.1,0.7,0.3,1,0.4s0.7,0.2,1,0.3l1,0.2c0.3,0,0.6,0,1,0.1h1c0.3,0,0.6,0,0.9-0.1l0.9-0.1h0.4l0.4-0.1l1.6-0.4
		c0.5-0.1,1-0.3,1.5-0.5l0.7-0.2l0.7-0.3l0,0c3.7-1.6,6.7-3.6,9.7-5.7c2.9-2.1,5.7-4.4,8.3-7.1c2.5-2.6,4.9-5.5,6.7-8.8
		c1.8-3.2,3-6.9,3.2-10.5C153.1,61.8,152.9,60,152.5,58.3z M60.6,89.3C60.6,89.3,60.6,89.2,60.6,89.3C60.6,89.2,60.6,89.2,60.6,89.3
		C60.7,89.7,60.6,89.5,60.6,89.3z M82.4,84.6L82.4,84.6L82.4,84.6L82.4,84.6z M100.9,56.4C100.8,56.3,100.8,56.3,100.9,56.4
		c0,0,0,0,0.1,0.1C100.9,56.5,100.9,56.4,100.9,56.4z"/>
	<g class="st3">
		<path class="st4" d="M251,97.8h-16.2V56.6l-18.3,30.1h-1.8l-18.3-30.1v41.2h-16.2V26.9h16.2l19.2,31.5l19.2-31.5H251V97.8z"/>
		<path class="st4" d="M288.4,85.6c4.1,0,7.7-1.6,9.7-3.8l12.1,7c-5,6.9-12.5,10.4-22.1,10.4c-17.3,0-28-11.6-28-26.7
			s10.9-26.7,26.9-26.7c14.8,0,25.7,11.4,25.7,26.7c0,2.1-0.2,4.2-0.6,6.1h-35.9C278.2,83.8,282.8,85.6,288.4,85.6z M297.7,67.2
			c-1.6-5.9-6.2-8-10.7-8c-5.8,0-9.6,2.8-11,8H297.7z"/>
		<path class="st4" d="M339.1,61.7v17.9c0,4.4,3.7,4.8,10.4,4.4v13.8c-19.8,2-25.6-3.9-25.6-18.1V61.7h-8.1V47.2h8.1v-9.6l15.2-4.6
			v14.2h10.4v14.6H339.1z"/>
		<path class="st4" d="M389.5,46.2v17.2c-6.3-1-15.2,1.5-15.2,11.5v22.9h-15.2V47.2h15.2v9C376.4,49.4,383.1,46.2,389.5,46.2z"/>
		<path class="st4" d="M395.1,33.6c0-5,4.1-9.1,9.1-9.1c5,0,9.1,4.2,9.1,9.1s-4.2,9.1-9.1,9.1C399.2,42.7,395.1,38.6,395.1,33.6z
			 M396.6,47.2h15.2v50.6h-15.2V47.2z"/>
		<path class="st4" d="M453.6,97.8l-9.4-13.4l-9.4,13.4h-17.4l18.1-25.7L418,47.2h17.4l8.8,12.6l8.8-12.6h17.4l-17.5,24.9L471,97.8
			H453.6z"/>
	</g>
</g>
</svg>
