<?xml version="1.0" standalone="no"?>
<!DOCTYPE svg PUBLIC "-//W3C//DTD SVG 20010904//EN"
 "http://www.w3.org/TR/2001/REC-SVG-20010904/DTD/svg10.dtd">
<svg version="1.0" xmlns="http://www.w3.org/2000/svg"
 width="350.000000pt" height="350.000000pt" viewBox="0 0 350.000000 350.000000"
 preserveAspectRatio="xMidYMid meet">
<metadata>
Created by potrace 1.14, written by Peter Selinger 2001-2017
</metadata>
<g transform="translate(0.000000,350.000000) scale(0.100000,-0.100000)"
fill="#000000" stroke="none">
<path d="M837 2538 c-6 -4 -14 -5 -18 -3 -4 3 -42 -4 -85 -16 -333 -85 -570
-364 -600 -707 l-6 -67 186 0 c179 0 187 1 191 20 27 148 62 223 134 288 53
47 79 64 143 89 50 21 73 22 383 25 l330 3 -30 -26 c-16 -15 -51 -45 -76 -68
-25 -22 -57 -50 -70 -61 -40 -33 -153 -129 -165 -140 -6 -5 -37 -32 -69 -60
-59 -51 -135 -116 -190 -164 -17 -14 -75 -64 -130 -111 -55 -47 -113 -97 -130
-111 -49 -43 -138 -120 -165 -143 -96 -81 -227 -193 -236 -201 -21 -20 -127
-110 -143 -122 -13 -10 262 -12 1304 -12 l1320 0 94 24 c355 92 593 394 600
762 1 54 3 142 4 196 l2 97 -45 1 c-25 0 -195 1 -377 1 l-333 0 -2 256 -3 255
-120 -103 c-66 -56 -146 -126 -179 -154 -32 -28 -62 -53 -65 -56 -4 -3 -7 -48
-7 -100 l0 -95 -94 -2 c-52 -1 -104 -2 -115 -2 -11 -1 -34 -13 -51 -28 -17
-16 -88 -77 -159 -138 -70 -60 -146 -127 -169 -147 -22 -21 -44 -38 -48 -38
-5 0 -8 -6 -8 -12 0 -10 70 -13 320 -12 176 1 321 -2 321 -5 1 -3 2 -55 3
-116 l1 -110 187 -3 187 -2 3 117 3 118 178 1 c157 1 177 0 177 -15 0 -24 -45
-116 -76 -157 -36 -47 -124 -108 -193 -135 -56 -22 -61 -22 -846 -24 -434 -1
-793 0 -797 2 -6 3 138 132 311 278 13 11 29 25 35 30 6 6 63 55 126 109 63
54 126 108 140 120 14 12 88 75 165 141 77 66 142 122 145 125 3 3 112 97 243
208 130 112 237 204 237 205 0 6 -1664 1 -1673 -5z"/>
</g>
</svg>
