<svg width="750" height="500" viewBox="0 0 750 500" fill="none" xmlns="http://www.w3.org/2000/svg">
<path d="M203.762 173.485H89.337C86.895 173.485 84.915 171.505 84.915 169.063C84.915 166.621 86.895 164.641 89.337 164.641H203.763C206.205 164.641 208.185 166.621 208.185 169.063C208.184 171.505 206.205 173.485 203.762 173.485Z" fill="#F4B0A7"/>
<path d="M414.614 55.2591H340.066C337.566 55.2591 335.54 53.2321 335.54 50.7321C335.54 48.2321 337.567 46.2051 340.066 46.2051H414.614C417.114 46.2051 419.14 48.2321 419.14 50.7321C419.141 53.2331 417.114 55.2591 414.614 55.2591Z" fill="#FFD4CD"/>
<path d="M140.291 231.84H127.136C123.679 231.84 120.877 229.038 120.877 225.581V213.233C120.877 209.777 123.679 206.974 127.136 206.974H140.291C143.747 206.974 146.549 209.776 146.549 213.233V225.581C146.549 229.038 143.747 231.84 140.291 231.84Z" fill="#407FFE"/>
<path d="M522.928 451.103H515.751C513.865 451.103 512.336 449.574 512.336 447.688V440.951C512.336 439.065 513.865 437.536 515.751 437.536H522.928C524.814 437.536 526.343 439.065 526.343 440.951V447.688C526.342 449.574 524.814 451.103 522.928 451.103Z" fill="#F4B0A7"/>
<path d="M651.645 163.407H644.468C642.582 163.407 641.053 161.878 641.053 159.993V153.256C641.053 151.37 642.582 149.841 644.468 149.841H651.645C653.531 149.841 655.06 151.37 655.06 153.256V159.993C655.06 161.879 653.531 163.407 651.645 163.407Z" fill="#407FFE"/>
<path d="M149.817 371.569L113.578 390.343L124.019 395.399L111.053 410.898L121.17 419.181L133.693 402.537L142.088 411.537L149.817 371.569Z" fill="#FEFEF4"/>
<path d="M276.003 449.674H233.661C230.526 449.674 227.984 447.132 227.984 443.997C227.984 440.862 230.526 438.32 233.661 438.32H276.003C279.138 438.32 281.68 440.862 281.68 443.997C281.68 447.132 279.138 449.674 276.003 449.674Z" fill="#FFD4CD"/>
<path d="M547.746 409.45H206.739C202.79 409.45 199.588 406.248 199.588 402.299V118.274C199.588 114.324 202.79 111.123 206.739 111.123H547.746C551.695 111.123 554.897 114.325 554.897 118.274V402.298C554.897 406.248 551.695 409.45 547.746 409.45Z" fill="#FCE7E4"/>
<path d="M199.588 147.02H554.897" stroke="#FEFEF4" stroke-width="1.9411" stroke-miterlimit="10"/>
<path d="M547.746 409.45H206.739C202.79 409.45 199.588 406.248 199.588 402.299V118.274C199.588 114.324 202.79 111.123 206.739 111.123H547.746C551.695 111.123 554.897 114.325 554.897 118.274V402.298C554.897 406.248 551.695 409.45 547.746 409.45Z" stroke="#FEFEF4" stroke-width="1.9411" stroke-miterlimit="10"/>
<path d="M229.625 134.447C232.391 134.447 234.634 132.205 234.634 129.438C234.634 126.672 232.391 124.429 229.625 124.429C226.858 124.429 224.616 126.672 224.616 129.438C224.616 132.205 226.858 134.447 229.625 134.447Z" stroke="#FEFEF4" stroke-width="1.9411" stroke-miterlimit="10"/>
<path d="M249.092 134.447C251.858 134.447 254.101 132.205 254.101 129.438C254.101 126.672 251.858 124.429 249.092 124.429C246.325 124.429 244.083 126.672 244.083 129.438C244.083 132.205 246.325 134.447 249.092 134.447Z" stroke="#FEFEF4" stroke-width="1.9411" stroke-miterlimit="10"/>
<path d="M268.56 134.447C271.326 134.447 273.569 132.205 273.569 129.438C273.569 126.672 271.326 124.429 268.56 124.429C265.793 124.429 263.551 126.672 263.551 129.438C263.551 132.205 265.793 134.447 268.56 134.447Z" stroke="#FEFEF4" stroke-width="1.9411" stroke-miterlimit="10"/>
<path d="M273.353 355.684H92.7998C87.0818 355.684 82.4458 351.049 82.4458 345.33V278.398C82.4458 272.68 87.0818 268.044 92.7998 268.044H273.353C279.071 268.044 283.707 272.679 283.707 278.398V345.33C283.706 351.049 279.071 355.684 273.353 355.684Z" fill="#FFD4CD"/>
<path d="M106.854 284.317C106.854 286.422 105.148 288.128 103.043 288.128C100.938 288.128 99.2319 286.422 99.2319 284.317C99.2319 282.212 100.938 280.506 103.043 280.506C105.148 280.506 106.854 282.212 106.854 284.317Z" stroke="#FEFEF4" stroke-width="1.4768" stroke-miterlimit="10"/>
<path d="M117.854 288.128C119.959 288.128 121.665 286.422 121.665 284.317C121.665 282.212 119.959 280.506 117.854 280.506C115.749 280.506 114.043 282.212 114.043 284.317C114.043 286.422 115.749 288.128 117.854 288.128Z" stroke="#FEFEF4" stroke-width="1.4768" stroke-miterlimit="10"/>
<path d="M132.664 288.128C134.769 288.128 136.475 286.422 136.475 284.317C136.475 282.212 134.769 280.506 132.664 280.506C130.559 280.506 128.853 282.212 128.853 284.317C128.853 286.422 130.559 288.128 132.664 288.128Z" stroke="#FEFEF4" stroke-width="1.4768" stroke-miterlimit="10"/>
<path d="M82.4458 298.743H283.706" stroke="#FEFEF4" stroke-width="1.4768" stroke-miterlimit="10"/>
<path d="M597.838 156.801H516.84C510.08 156.801 504.6 151.321 504.6 144.561V79.2239C504.6 72.4639 510.08 66.9839 516.84 66.9839H597.838C604.598 66.9839 610.078 72.4639 610.078 79.2239V144.561C610.078 151.321 604.598 156.801 597.838 156.801Z" fill="#FFD4CD"/>
<path d="M550.682 122.109C540.632 122.109 532.455 113.932 532.455 103.882C532.455 93.8318 540.632 85.6548 550.682 85.6548C560.732 85.6548 568.909 93.8318 568.909 103.882C568.909 113.933 560.733 122.109 550.682 122.109ZM550.682 89.7848C542.909 89.7848 536.585 96.1088 536.585 103.882C536.585 111.655 542.909 117.979 550.682 117.979C558.455 117.979 564.779 111.655 564.779 103.882C564.779 96.1088 558.456 89.7848 550.682 89.7848Z" fill="#FEFEF4"/>
<path d="M563.545 113.872L560.625 116.792L566.006 122.174L568.926 119.253L563.545 113.872Z" fill="#FEFEF4"/>
<path d="M571.699 118.48L582.348 129.129C583.477 130.258 583.477 132.089 582.348 133.219L579.979 135.588C578.85 136.717 577.019 136.717 575.889 135.588L565.24 124.939C564.111 123.81 564.111 121.979 565.24 120.849L567.609 118.48C568.739 117.351 570.57 117.351 571.699 118.48Z" fill="#FEFEF4"/>
<path d="M168.671 128.642H122.12C114.315 128.642 107.988 122.315 107.988 114.51V75.0329C107.988 67.2279 114.315 60.9009 122.12 60.9009H168.671C176.476 60.9009 182.803 67.2279 182.803 75.0329V114.51C182.803 122.315 176.476 128.642 168.671 128.642Z" fill="#407FFE"/>
<path d="M145.395 109.365C136.656 109.365 129.546 102.255 129.546 93.516C129.546 84.777 136.656 77.667 145.395 77.667C154.134 77.667 161.244 84.777 161.244 93.516C161.245 102.256 154.135 109.365 145.395 109.365ZM145.395 82.43C139.282 82.43 134.309 87.403 134.309 93.516C134.309 99.629 139.282 104.602 145.395 104.602C151.508 104.602 156.481 99.629 156.481 93.516C156.481 87.403 151.508 82.43 145.395 82.43Z" fill="#FEFEF4"/>
<path d="M154.738 82.4302L136.563 104.602" stroke="#FEFEF4" stroke-width="4.522" stroke-miterlimit="10"/>
<path d="M666.529 366.961H497.887C490.682 366.961 484.841 361.12 484.841 353.915V228.075C484.841 220.87 490.682 215.029 497.887 215.029H666.529C673.734 215.029 679.575 220.87 679.575 228.075V353.915C679.575 361.12 673.734 366.961 666.529 366.961Z" fill="#407FFE"/>
<path d="M534.183 306.085V297.624H511.225L510.116 287.497L531.131 258.505H547.639V286.526H553.395V297.624H547.639V306.085H534.183ZM523.918 286.526H534.183V272.238L523.918 286.526ZM580.101 306.918C566.923 306.918 557.629 296.722 557.629 282.226C557.629 267.799 566.923 257.604 580.101 257.604C593.279 257.604 602.573 267.799 602.573 282.226C602.573 296.722 593.279 306.918 580.101 306.918ZM580.101 294.711C585.164 294.711 588.702 289.509 588.702 282.226C588.702 274.943 585.164 269.811 580.101 269.811C575.038 269.811 571.501 274.943 571.501 282.226C571.501 289.509 575.038 294.711 580.101 294.711ZM630.093 306.085V297.624H607.135L606.026 287.497L627.041 258.505H643.549V286.526H649.305V297.624H643.549V306.085H630.093ZM619.828 286.526H630.093V272.238L619.828 286.526Z" fill="#FEFEF4"/>
<path d="M504.993 233.063C507.031 233.063 508.684 231.41 508.684 229.372C508.684 227.333 507.031 225.681 504.993 225.681C502.954 225.681 501.302 227.333 501.302 229.372C501.302 231.41 502.954 233.063 504.993 233.063Z" stroke="#FEFEF4" stroke-width="1.4304" stroke-miterlimit="10"/>
<path d="M519.338 233.063C521.377 233.063 523.029 231.41 523.029 229.372C523.029 227.333 521.377 225.681 519.338 225.681C517.3 225.681 515.647 227.333 515.647 229.372C515.647 231.41 517.3 233.063 519.338 233.063Z" stroke="#FEFEF4" stroke-width="1.4304" stroke-miterlimit="10"/>
<path d="M533.685 233.063C535.724 233.063 537.376 231.41 537.376 229.372C537.376 227.333 535.724 225.681 533.685 225.681C531.647 225.681 529.994 227.333 529.994 229.372C529.994 231.41 531.647 233.063 533.685 233.063Z" stroke="#FEFEF4" stroke-width="1.4304" stroke-miterlimit="10"/>
<path d="M484.841 244.767H679.575" stroke="#FEFEF4" stroke-width="1.4304" stroke-miterlimit="10"/>
<path d="M395.808 303.371L395.066 293.338L332.52 296.413V306.095C332.52 306.095 318.452 319.479 312.901 408.521H425.486C425.486 408.521 437.838 329.716 395.808 303.371Z" fill="#407FFE"/>
<path d="M332.521 306.095L395.809 303.371" stroke="black" stroke-width="1.5516" stroke-miterlimit="10"/>
<path d="M345.452 347.15L358.416 352.429L365.356 408.521" stroke="black" stroke-width="1.5516" stroke-miterlimit="10"/>
<path d="M264.144 283.975L281.423 226.935L319.43 241.183L301.195 295.809C297.459 307.092 284.565 312.415 273.958 307.053C265.501 302.778 261.356 293.032 264.144 283.975Z" fill="#F26E5A"/>
<path d="M290.799 196.473C294.221 185.354 306.159 179.267 317.169 183.027C327.874 186.683 333.634 198.281 330.079 209.02L319.43 241.184L281.423 226.936L290.799 196.473Z" fill="#FEFEF4"/>
<path d="M293.489 279.696L250.08 197.388C250.08 197.388 251.071 182.516 226.366 181.628L226.372 181.65C226.036 181.634 225.701 181.603 225.364 181.603H217.106C215.571 181.603 214.176 182.683 213.965 184.203C213.721 185.96 214.953 187.474 216.607 187.681L224.937 188.858L213.606 191.882L211.491 192.663L196.061 182.468C194.832 181.592 193.112 181.995 192.402 183.327C191.844 184.372 192.095 185.665 193.005 186.423C193.957 187.217 195.49 188.532 197.16 189.976L193.754 187.936C192.459 187.161 190.777 187.7 190.175 189.085C189.703 190.171 190.056 191.44 191.023 192.124C191.855 192.712 192.926 193.466 194.064 194.266L192.88 193.804C191.583 193.298 190.045 193.664 189.254 194.81C188.178 196.369 188.823 198.485 190.534 199.201L207.395 206.258C210.306 207.477 213.088 208.237 216.511 207.425L231.542 203.882L265.173 298.018L293.489 279.696Z" fill="#F26E5A"/>
<path d="M275.673 245.916L283.706 261.148" stroke="#DB5749" stroke-width="1.5" stroke-miterlimit="10"/>
<path d="M324.59 182.119L308.454 183.325C308.454 183.325 285.09 215.018 332.52 296.412L395.066 293.337L399.779 205.642L392.058 180.745H364.034L324.59 182.119Z" fill="#FEFEF4"/>
<path d="M306.274 236.252C306.274 236.252 301.62 226.463 304.61 204.777" stroke="#FCE7E4" stroke-width="1.5516" stroke-miterlimit="10"/>
<path d="M451.463 272.524L425.488 218.882L390.173 238.891L416.716 289.999C422.168 300.561 435.735 303.804 445.375 296.851C453.059 291.308 455.63 281.034 451.463 272.524Z" fill="#F26E5A"/>
<path d="M411.469 190.259C406.352 179.811 393.61 175.663 383.323 181.096C373.32 186.379 369.442 198.734 374.631 208.786L390.173 238.892L425.488 218.883L411.469 190.259Z" fill="#FEFEF4"/>
<path d="M390.172 238.891L377.34 214.034" stroke="#FCE7E4" stroke-width="1.5516" stroke-miterlimit="10"/>
<path d="M505.683 180.754C504.892 179.608 503.355 179.242 502.057 179.748L494.512 182.693L501.599 176.697C502.773 175.704 503.103 173.95 502.215 172.694C501.198 171.256 499.249 171.036 497.952 172.08L491.358 177.39L496.978 170.041C497.912 168.819 497.859 167.035 496.723 165.999C495.422 164.812 493.47 165.014 492.427 166.312L481.33 177.828L469.999 174.804L478.329 173.627C479.982 173.42 481.215 171.906 480.971 170.149C480.76 168.629 479.365 167.549 477.83 167.549H469.572C464.695 167.549 459.933 169.253 456.323 172.492C456.262 172.538 456.207 172.57 456.145 172.619C451.077 176.615 452.921 184.805 452.921 184.805L421.81 272.883L452.643 286.559L470.418 191.974L481.77 191.995C482.474 192.061 483.181 192.057 483.885 191.999H483.971L483.966 191.994C485.186 191.885 486.393 191.597 487.543 191.115L504.404 185.147C506.114 184.429 506.759 182.312 505.683 180.754Z" fill="#F26E5A"/>
<path d="M433.899 236.252L427.18 259.707" stroke="#DB5749" stroke-width="1.5" stroke-miterlimit="10"/>
<path d="M323.336 109.463C321.392 110.796 308.352 114.186 308.094 116.551C308.094 116.551 312.383 133.321 307.99 136.451C296.111 144.912 292.308 161.5 292.308 161.5C292.308 161.5 323.645 184.965 406.948 160.327C406.948 160.327 407.946 150.348 392.795 143.103C388.47 141.035 384.627 137.919 382.197 133.687C380.315 130.409 380.029 129.018 379.53 126.076C378.135 117.851 355.441 87.4381 323.336 109.463Z" fill="black"/>
<path d="M324.567 134.597C324.95 140.101 320.799 144.873 315.295 145.256C309.791 145.639 305.019 141.488 304.636 135.984C304.253 130.48 308.404 125.708 313.908 125.325C319.412 124.942 324.184 129.094 324.567 134.597Z" fill="#DB5749"/>
<path d="M329.081 159.068L330.462 180.795C330.931 188.425 334.051 193.624 341.558 193.101C347.966 192.655 355.59 187.521 355.942 181.107L352.123 147.021L329.081 159.068Z" fill="#F26E5A"/>
<path d="M324.591 182.119L364.035 180.746C364.035 180.746 363.076 200.139 339.632 198.323C323.336 197.061 324.591 182.119 324.591 182.119Z" fill="#F26E5A"/>
<path d="M330.219 176.965L355.43 152.318L328.894 156.843L330.219 176.965Z" fill="#DB5749"/>
<path d="M335.691 162.579C322.855 162.617 312.255 152.509 311.872 142.028L311.116 117.293C310.635 104.156 320.661 93.0064 333.775 92.0934C347.2 91.1594 361.193 101.121 362.127 114.546L362.519 134.446C362.822 149.838 351.048 161.51 335.691 162.579Z" fill="#F26E5A"/>
<path d="M325.334 133.321L324.59 139.463L327.764 139.579" stroke="black" stroke-width="1.2385" stroke-miterlimit="10" stroke-linecap="round" stroke-linejoin="round"/>
<path d="M338.015 118.328C338.015 118.328 330.924 117.746 330.853 120.633C330.853 120.633 330.859 122.587 337.045 122.975C343.232 123.363 344.841 122.91 345.406 121.074C345.971 119.238 341.341 118.346 338.015 118.328Z" fill="black"/>
<path d="M317.454 122.545C317.454 122.545 322.825 122.113 323.331 124.708C323.331 124.708 323.632 126.464 318.927 126.734C314.222 127.004 312.766 126.42 312.677 124.934C312.573 123.163 314.896 122.519 317.454 122.545Z" fill="black"/>
<path d="M320.572 130.977C320.613 132.23 319.631 133.279 318.378 133.32C317.125 133.361 316.076 132.379 316.035 131.126C315.994 129.873 316.976 128.824 318.229 128.783C319.483 128.742 320.532 129.724 320.572 130.977Z" fill="black"/>
<path d="M339.629 130.353C339.67 131.606 338.687 132.655 337.435 132.696C336.182 132.737 335.133 131.754 335.092 130.502C335.051 129.249 336.034 128.2 337.287 128.159C338.54 128.118 339.588 129.1 339.629 130.353Z" fill="black"/>
<path d="M332.992 143.847C332.992 143.847 329.637 142.318 325.586 145.813" stroke="black" stroke-width="1.2385" stroke-miterlimit="10" stroke-linecap="round" stroke-linejoin="round"/>
<path d="M341.72 87.8411C338.519 87.6711 335.293 88.0221 332.195 88.8471C324.507 90.8941 310.701 96.5881 308.335 111.354C307.547 115.246 308.093 116.55 308.093 116.55C308.093 116.55 333.877 117.562 349.121 110.365C351.316 119.654 353.343 125.4 362.519 134.446L370.664 122.202L379.834 130.427C379.894 130.74 379.883 89.8691 341.72 87.8411Z" fill="black"/>
<path d="M375.897 134.697C376.28 140.201 372.129 144.973 366.625 145.356C361.121 145.739 356.349 141.588 355.966 136.084C355.583 130.58 359.734 125.808 365.238 125.426C370.742 125.042 375.514 129.193 375.897 134.697Z" fill="#F26E5A"/>
<path d="M362.118 138.245C362.118 138.245 361.615 131.02 368.603 131.677" stroke="black" stroke-width="1.2385" stroke-miterlimit="10" stroke-linecap="round" stroke-linejoin="round"/>
</svg>
