<?xml version="1.0" encoding="utf-8"?>
<!-- Generator: Adobe Illustrator 22.0.1, SVG Export Plug-In . SVG Version: 6.00 Build 0)  -->
<svg version="1.1" id="Layer_1" xmlns="http://www.w3.org/2000/svg" xmlns:xlink="http://www.w3.org/1999/xlink" x="0px" y="0px"
	 viewBox="0 0 512 512" style="enable-background:new 0 0 512 512;" xml:space="preserve">
<style type="text/css">
	.st0{fill:#FFFFFF;}
</style>
<g>
	<path class="st0" d="M490.1,12c-14.8-14.8-38.2-16-54.5-2.7l-143.3,117H50c-22.1,0-40,18-40,40v241.4c0,22.1,18,40,40,40h113.8V482
		h-25.2c-8.3,0-15,6.7-15,15s6.7,15,15,15h160.5c8.3,0,15-6.7,15-15s-6.7-15-15-15h-25.2v-34.3h113.8c22.1,0,40-18,40-40V146.1
		l65-79.7C506,50.2,504.9,26.8,490.1,12L490.1,12z M282.7,186.3c0.5-9,4.6-17.2,11.6-22.9l25-20.4l39.8,39.8l-20.4,25
		c-5.7,7-13.8,11.1-22.9,11.5c-9,0.5-17.5-2.8-23.9-9.2C285.5,203.8,282.2,195.3,282.7,186.3z M270.6,283
		c-6.6,6.6-17.7,9.7-32.9,9.1c-11.5-0.5-21.4,0.3-29.7,1.9c1.5-8.3,2.3-18.2,1.9-29.7c-0.6-15.2,2.5-26.3,9.1-32.9
		c6.9-6.9,16.1-10.7,25.8-10.7c9.8,0,18.9,3.8,25.8,10.7C284.9,245.6,284.9,268.8,270.6,283z M243.9,482h-50.1v-34.3h50.1V482z
		 M397.8,407.6c0,5.5-4.5,10-10,10H50c-5.5,0-10-4.5-10-10v-12.8h357.8V407.6z M397.8,364.8H40V166.3c0-5.5,4.5-10,10-10h211.4
		c-5.1,8.6-8.2,18.3-8.7,28.5c-0.1,2.1-0.1,4.3,0,6.4c-2.6-0.3-5.3-0.5-7.9-0.5c-17.8,0-34.5,6.9-47,19.5
		c-12.8,12.8-18.8,31.4-17.9,55.3c1.3,31.8-9.3,44.6-10.1,45.5c-5.6,5.9-5.5,15.2,0.2,21c2.9,2.9,6.8,4.4,10.6,4.4
		c3.7,0,7.5-1.4,10.4-4.1c0.9-0.8,13.7-11.4,45.5-10.1c23.9,1,42.5-5,55.3-17.9c15-15,21.3-35.4,19-54.9c1.1,0.1,2.3,0.1,3.4,0.1
		c1,0,2,0,3.1-0.1c17.3-0.9,33.6-9.1,44.6-22.5l35.9-44L397.8,364.8L397.8,364.8z M191.2,332c0,0-0.1,0.1-0.2,0.2
		C191.1,332.1,191.2,332,191.2,332z M170,310.7c-0.1,0.1-0.2,0.2-0.2,0.2C170,310.8,170,310.7,170,310.7z M469.6,47.4l-91.4,112
		l-35.6-35.6l112-91.5c2-1.6,4.4-2.4,6.7-2.4c2.7,0,5.5,1.1,7.5,3.1C472.7,37,473,43.2,469.6,47.4L469.6,47.4z"/>
</g>
</svg>
