<?xml version="1.0" encoding="utf-8"?>
<!-- Generator: Adobe Illustrator 22.0.1, SVG Export Plug-In . SVG Version: 6.00 Build 0)  -->
<svg version="1.1" id="Capa_1" xmlns="http://www.w3.org/2000/svg" xmlns:xlink="http://www.w3.org/1999/xlink" x="0px" y="0px"
	 viewBox="0 0 512 512" style="enable-background:new 0 0 512 512;" xml:space="preserve">
<style type="text/css">
	.st0{fill:#FFFFFF;}
</style>
<g>
	<path class="st0" d="M256,0C115,0,0,115,0,256c0,141,115,256,256,256c141,0,256-115,256-256C512,115,397,0,256,0z M256,482
		C131.4,482,30,380.6,30,256S131.4,30,256,30s226,101.4,226,226S380.6,482,256,482z"/>
	<circle class="st0" cx="128.7" cy="383.3" r="15"/>
	<circle class="st0" cx="383.3" cy="128.7" r="15"/>
	<path class="st0" d="M118.1,118.1c-5.9,5.9-5.9,15.4,0,21.2s15.4,5.9,21.2,0s5.9-15.4,0-21.2C133.5,112.3,124,112.3,118.1,118.1z"
		/>
	<path class="st0" d="M372.7,372.7c-5.9,5.9-5.9,15.4,0,21.2s15.4,5.9,21.2,0s5.9-15.4,0-21.2S378.5,366.8,372.7,372.7z"/>
	<path class="st0" d="M256,121c8.3,0,15-6.7,15-15V76c0-8.3-6.7-15-15-15s-15,6.7-15,15v30C241,114.3,247.7,121,256,121z"/>
	<path class="st0" d="M256,391c-8.3,0-15,6.7-15,15v30c0,8.3,6.7,15,15,15s15-6.7,15-15v-30C271,397.7,264.3,391,256,391z"/>
	<path class="st0" d="M121,256c0-8.3-6.7-15-15-15H76c-8.3,0-15,6.7-15,15s6.7,15,15,15h30C114.3,271,121,264.3,121,256z"/>
	<path class="st0" d="M391,256c0,8.3,6.7,15,15,15h30c8.3,0,15-6.7,15-15s-6.7-15-15-15h-30C397.7,241,391,247.7,391,256z"/>
	<path class="st0" d="M271,249.8V166c0-8.3-6.7-15-15-15s-15,6.7-15,15v90c0,4,1.6,7.8,4.4,10.6l90,90c5.9,5.9,15.4,5.9,21.2,0
		s5.9-15.4,0-21.2L271,249.8z"/>
</g>
</svg>
