<?xml version="1.0" encoding="utf-8"?>
<!-- Generator: Adobe Illustrator 22.0.1, SVG Export Plug-In . SVG Version: 6.00 Build 0)  -->
<svg version="1.1" id="Capa_1" xmlns="http://www.w3.org/2000/svg" xmlns:xlink="http://www.w3.org/1999/xlink" x="0px" y="0px"
	 viewBox="0 0 512 512" style="enable-background:new 0 0 512 512;" xml:space="preserve">
<style type="text/css">
	.st0{fill:#FFFFFF;}
</style>
<g>
	<g>
		<path class="st0" d="M447,201.9L277.3,32.3c-17.5-17.5-46.1-17.5-63.6,0c-15.8,15.8-17.1,39.8-5.5,57l-0.2,1.2
			c-12.2,61.2-42,116.8-86.1,160.9L44,329.2c-17.6,17.6-17.6,46,0,63.6l42.4,42.4c17.6,17.6,46,17.6,63.6,0l10.6-10.6l74.2,74.2
			c17.6,17.6,46,17.6,63.6,0c17.5-17.5,17.5-46.1,0-63.6l-31.8-31.8l10.6-10.6c17.6-17.6,17.6-46,0-63.6l-7.2-7.2
			c35.4-24.8,75.7-42.1,118.7-50.7l1.2-0.2c17.6,11.9,41.5,9.9,57-5.5h0C464.5,248,464.5,219.5,447,201.9z M128.9,414
			c-5.9,5.9-15.3,5.9-21.2,0l-42.4-42.4c-5.9-5.9-5.9-15.3,0-21.2l74.2-74.2l63.6,63.6C195.8,347,136.3,406.5,128.9,414z
			 M277.3,456.4c5.8,5.8,5.8,15.4,0,21.2c-5.8,5.8-15.4,5.8-21.2,0l-74.2-74.2l21.2-21.2L277.3,456.4z M224.3,361
			c4.5-4.5,11.3-11.4,21.9-20.5l9.9,9.9c5.9,5.9,5.9,15.3,0,21.2l-10.6,10.6L224.3,361z M224.9,319.2L160,254.3
			c34.8-40.2,59.7-87.6,73-139.1l131,131C312.5,259.5,265.1,284.4,224.9,319.2z M425.8,244.3c-5.9,5.9-15.3,5.9-21.2,0L234.9,74.7
			c-5.9-5.9-5.9-15.3,0-21.2s15.3-5.9,21.2,0l169.7,169.7C431.6,229,431.6,238.5,425.8,244.3z"/>
	</g>
</g>
<g>
	<g>
		<path class="st0" d="M150.1,329.2c-5.9-5.9-15.4-5.9-21.2,0l-21.2,21.2c-5.9,5.9-5.9,15.4,0,21.2c5.9,5.9,15.4,5.9,21.2,0
			l21.2-21.2C155.9,344.5,155.9,335,150.1,329.2z"/>
	</g>
</g>
<g>
	<g>
		<path class="st0" d="M346.2,0c-8.3,0-15,6.7-15,15v30c0,8.3,6.7,15,15,15s15-6.7,15-15V15C361.2,6.7,354.5,0,346.2,0z"/>
	</g>
</g>
<g>
	<g>
		<path class="st0" d="M466.2,120h-30c-8.3,0-15,6.7-15,15s6.7,15,15,15h30c8.3,0,15-6.7,15-15S474.4,120,466.2,120z"/>
	</g>
</g>
<g>
	<g>
		<path class="st0" d="M446.8,34.4c-5.9-5.9-15.4-5.9-21.2,0l-30,30c-5.9,5.9-5.9,15.4,0,21.2c5.9,5.9,15.4,5.9,21.2,0l30-30
			C452.6,49.7,452.6,40.2,446.8,34.4z"/>
	</g>
</g>
</svg>
